<svg width="40" height="40" viewBox="0 0 40 40" fill="none" xmlns="http://www.w3.org/2000/svg">
<circle cx="20" cy="20" r="20" fill="#FF3131"/>
<path d="M29 19.8662C29 19.1531 28.9421 18.6326 28.8169 18.093H20.6735V21.3118H25.4535C25.3571 22.1117 24.8367 23.3163 23.6802 24.1258L23.664 24.2336L26.2388 26.2282L26.4172 26.246C28.0555 24.733 29 22.5068 29 19.8662Z" fill="white"/>
<path d="M20.6735 28.3469C23.0153 28.3469 24.9812 27.5759 26.4172 26.246L23.6802 24.1258C22.9478 24.6366 21.9648 24.9932 20.6735 24.9932C18.3798 24.9932 16.4331 23.4802 15.7392 21.3889L15.6375 21.3975L12.9602 23.4695L12.9251 23.5669C14.3514 26.4002 17.2811 28.3469 20.6735 28.3469Z" fill="white"/>
<path d="M15.7392 21.3889C15.5561 20.8492 15.4501 20.2709 15.4501 19.6735C15.4501 19.0759 15.5561 18.4977 15.7296 17.958L15.7247 17.8431L13.0138 15.7378L12.9251 15.78C12.3373 16.9558 12 18.2761 12 19.6735C12 21.0709 12.3373 22.3911 12.9251 23.5669L15.7392 21.3889Z" fill="white"/>
<path d="M20.6735 14.3537C22.3021 14.3537 23.4007 15.0572 24.0272 15.6451L26.475 13.2551C24.9717 11.8577 23.0153 11 20.6735 11C17.2811 11 14.3514 12.9467 12.9251 15.78L15.7296 17.958C16.4331 15.8668 18.3798 14.3537 20.6735 14.3537Z" fill="white"/>
</svg>
